<svg width="24" height="25" viewBox="0 0 24 25" fill="none" xmlns="http://www.w3.org/2000/svg">
    <path
        d="M11.9995 19.75C11.7925 19.75 11.6245 19.918 11.6265 20.125C11.6255 20.332 11.7935 20.5 12.0005 20.5C12.2075 20.5 12.3755 20.332 12.3755 20.125C12.3755 19.918 12.2075 19.75 11.9995 19.75"
        stroke="#ED0063" stroke-width="1.5" stroke-linecap="round" stroke-linejoin="round" />
    <path d="M6 20.5L19 3.5" stroke="#ED0063" stroke-width="1.5" stroke-linecap="round"
        stroke-linejoin="round" />
    <path d="M14.1158 9.88709C10.7808 9.25909 7.17882 10.1271 4.59082 12.5001" stroke="#ED0063"
        stroke-width="1.5" stroke-linecap="round" stroke-linejoin="round" />
    <path d="M17.5138 5.44395C12.2038 3.55295 5.89775 4.50595 1.59375 8.30395" stroke="#ED0063"
        stroke-width="1.5" stroke-linecap="round" stroke-linejoin="round" />
    <path d="M17.2666 10.9971C18.0316 11.4021 18.7536 11.8991 19.4076 12.5001" stroke="#ED0063"
        stroke-width="1.5" stroke-linecap="round" stroke-linejoin="round" />
    <path d="M20.4209 6.87207C21.1139 7.29707 21.7869 7.75907 22.4059 8.30407" stroke="#ED0063"
        stroke-width="1.5" stroke-linecap="round" stroke-linejoin="round" />
    <path d="M14.2617 14.9268C15.0477 15.2278 15.7857 15.6908 16.4197 16.3208" stroke="#ED0063"
        stroke-width="1.5" stroke-linecap="round" stroke-linejoin="round" />
</svg>
